<?xml version="1.0" standalone="no"?>
<!DOCTYPE svg PUBLIC "-//W3C//DTD SVG 20010904//EN"
 "http://www.w3.org/TR/2001/REC-SVG-20010904/DTD/svg10.dtd">
<svg version="1.0" xmlns="http://www.w3.org/2000/svg"
 width="1000.000000pt" height="1000.000000pt" viewBox="0 0 1000.000000 1000.000000"
 preserveAspectRatio="xMidYMid meet">
<metadata>
Created by potrace 1.11, written by Peter Selinger 2001-2013
</metadata>
<g transform="translate(0.000000,1000.000000) scale(0.100000,-0.100000)"
fill="#000000" stroke="none">
<path d="M0 5000 l0 -5000 5000 0 5000 0 0 5000 0 5000 -5000 0 -5000 0 0
-5000z m4440 1970 l0 -1590 960 480 960 480 0 -342 c0 -341 0 -343 -24 -395
-13 -28 -38 -62 -56 -75 -17 -12 -437 -233 -933 -490 l-902 -466 -3 -1176 -2
-1176 1550 0 1550 0 0 -410 0 -410 -2040 0 -2040 0 0 1365 c0 751 -2 1365 -6
1365 -3 0 -210 -101 -461 -225 -251 -124 -458 -225 -460 -225 -1 0 -3 156 -3
348 0 388 2 401 72 457 19 15 218 123 443 240 l410 214 2 1798 c2 989 5 1804
8 1811 3 9 111 12 490 12 l485 0 0 -1590z"/>
</g>
</svg>
